<?xml version="1.0" standalone="no"?>
<!DOCTYPE svg PUBLIC "-//W3C//DTD SVG 20010904//EN"
 "http://www.w3.org/TR/2001/REC-SVG-20010904/DTD/svg10.dtd">
<svg version="1.0" xmlns="http://www.w3.org/2000/svg"
 width="24" height="24" viewBox="0 0 24 24"
 preserveAspectRatio="xMidYMid meet">
<metadata>
Created by potrace 1.16, written by Peter Selinger 2001-2019
</metadata>
<g transform="translate(0.000000,24) scale(0.100000,-0.100000)"
fill="#000000" stroke="none">
<path d="M243 560 c-34 -14 -39 -52 -17 -132 5 -16 -2 -18 -49 -18 -66 0 -96
-24 -77 -60 8 -16 9 -25 0 -35 -9 -10 -8 -19 1 -37 7 -13 13 -32 14 -42 1 -11
12 -26 23 -34 12 -8 22 -20 22 -28 0 -26 111 -30 268 -8 l42 6 0 99 c0 90 -2
99 -19 99 -25 0 -108 90 -130 143 -15 35 -41 61 -54 56 -1 0 -12 -4 -24 -9z
m57 -78 c12 -27 45 -73 76 -103 53 -52 54 -55 54 -110 0 -55 -1 -57 -31 -68
-18 -6 -70 -11 -117 -11 -78 0 -87 2 -108 26 -13 14 -24 33 -24 43 0 10 -3 21
-7 25 -5 4 -8 25 -9 47 l0 39 73 0 c40 0 73 2 73 4 0 2 -7 23 -15 46 -35 99
-4 153 35 62z"/>
</g>
</svg>
