<svg xmlns="http://www.w3.org/2000/svg" xmlns:xlink="http://www.w3.org/1999/xlink" version="1.1" width="1000" height="1000" viewBox="0 0 1000 1000" xml:space="preserve">
<desc>Created with Fabric.js 3.5.0</desc>
<defs>
</defs>
<rect x="0" y="0" width="100%" height="100%" fill="#ffffff"/>
<g transform="matrix(0.0085 0 0 -0.0085 513.2868 475.5411)" id="619077">
<path style="stroke: none; stroke-width: 1; stroke-dasharray: none; stroke-linecap: butt; stroke-dashoffset: 0; stroke-linejoin: miter; stroke-miterlimit: 4; is-custom-font: none; font-file-url: none; fill: rgb(0,0,0); fill-rule: nonzero; opacity: 1;" vector-effect="non-scaling-stroke" transform=" translate(-5122.0046, -5120.6671)" d="M 8050 8496 c -483 -172 -902 -321 -1820 -646 c -437 -155 -921 -327 -1075 -382 c -154 -55 -332 -118 -395 -140 c -63 -21 -128 -45 -145 -52 c -16 -8 -41 -17 -55 -21 c -14 -4 -68 -22 -120 -41 c -52 -18 -203 -71 -335 -118 c -313 -110 -865 -305 -1530 -541 c -88 -31 -261 -93 -385 -136 c -124 -44 -255 -91 -291 -105 c -130 -49 -193 -105 -247 -221 c -23 -50 -27 -71 -27 -153 c 0 -87 3 -101 33 -165 c 31 -66 70 -107 740 -776 c 490 -490 720 -714 751 -729 c 24 -12 74 -28 112 -36 c 127 -26 235 6 359 109 c 75 61 523 426 780 636 c 96 78 204 166 240 195 c 64 53 406 332 985 803 c 160 130 322 263 360 294 c 225 185 1490 1215 1515 1233 c 21 15 20 14 -187 -239 c -98 -121 -418 -512 -709 -870 c -291 -357 -622 -762 -734 -900 c -112 -137 -224 -275 -249 -306 c -26 -31 -75 -91 -111 -135 c -97 -120 -464 -569 -765 -939 c -148 -181 -309 -379 -359 -440 c -141 -170 -179 -265 -158 -392 c 23 -140 -2 -111 769 -884 c 661 -661 712 -711 774 -739 c 186 -86 402 -21 502 152 c 14 23 114 293 222 598 c 108 305 258 726 332 935 c 74 209 163 461 198 560 c 35 99 123 347 195 550 c 73 204 165 467 206 585 c 41 118 78 224 84 235 c 8 18 387 1087 507 1430 c 24 72 47 137 50 145 c 61 167 84 232 133 375 c 33 94 82 233 110 310 c 28 77 90 248 137 380 c 187 528 186 525 159 588 c -17 39 -71 92 -109 106 c -16 6 -45 11 -65 10 c -20 0 -192 -56 -382 -123 z" stroke-linecap="round"/>
</g>
</svg>