<?xml version="1.0" standalone="no"?>
<!DOCTYPE svg PUBLIC "-//W3C//DTD SVG 20010904//EN"
 "http://www.w3.org/TR/2001/REC-SVG-20010904/DTD/svg10.dtd">
<svg version="1.0" xmlns="http://www.w3.org/2000/svg"
 width="24.000000pt" height="24.000000pt" viewBox="0 0 24.000000 24.000000"
 preserveAspectRatio="xMidYMid meet">

<g transform="translate(0.000000,24.000000) scale(0.100000,-0.100000)"
fill="#000000" stroke="none">
<path d="M20 120 l0 -80 100 0 100 0 0 80 0 80 -100 0 -100 0 0 -80z m90 30
c0 -5 -4 -10 -10 -10 -5 0 -10 5 -10 10 0 6 5 10 10 10 6 0 10 -4 10 -10z m58
-50 l23 -30 -72 0 c-71 0 -72 0 -54 20 15 16 21 18 33 8 12 -10 17 -9 30 10 8
12 15 22 16 22 1 0 12 -13 24 -30z"/>
</g>
</svg>
