<?xml version="1.0" standalone="no"?>
<!DOCTYPE svg PUBLIC "-//W3C//DTD SVG 20010904//EN"
 "http://www.w3.org/TR/2001/REC-SVG-20010904/DTD/svg10.dtd">
<svg version="1.0" xmlns="http://www.w3.org/2000/svg"
 width="198.000000pt" height="198.000000pt" viewBox="0 0 198.000000 198.000000"
 preserveAspectRatio="xMidYMid meet">

<g transform="translate(0.000000,198.000000) scale(0.100000,-0.100000)"
fill="#000000" stroke="none">
<path d="M0 990 l0 -990 990 0 990 0 0 990 0 990 -990 0 -990 0 0 -990z m1043
768 c15 -17 17 -42 17 -175 0 -150 -1 -155 -25 -178 -13 -14 -34 -25 -45 -25
-11 0 -32 11 -45 25 -24 23 -25 28 -25 175 0 88 4 160 11 171 22 42 79 45 112
7z m-366 -95 c33 -37 153 -252 153 -276 0 -24 -44 -67 -68 -67 -33 0 -67 36
-119 127 -96 167 -101 187 -57 222 36 28 61 26 91 -6z m721 7 c36 -34 28 -72
-40 -191 -74 -131 -99 -159 -138 -159 -39 0 -74 44 -66 83 8 39 114 225 147
260 33 32 67 35 97 7z m-896 -312 c161 -92 184 -122 136 -183 -29 -38 -63 -30
-190 42 -132 73 -163 103 -154 145 16 80 62 79 208 -4z m1167 49 c6 -8 14 -28
17 -45 9 -42 -22 -72 -154 -145 -127 -72 -161 -80 -190 -42 -48 60 -27 88 134
182 112 64 168 79 193 50z m-1094 -372 c14 -13 25 -34 25 -45 0 -11 -11 -32
-25 -45 -23 -24 -28 -25 -178 -25 -136 0 -158 2 -178 18 -15 13 -22 30 -22 52
0 22 7 39 22 52 20 16 42 18 178 18 150 0 155 -1 178 -25z m1186 7 c31 -26 31
-78 0 -104 -20 -16 -42 -18 -178 -18 -150 0 -155 1 -178 25 -14 13 -25 34 -25
45 0 12 11 32 25 45 23 24 28 25 178 25 136 0 158 -2 178 -18z m-1122 -238
c47 -60 24 -90 -137 -181 -144 -82 -189 -84 -207 -10 -10 40 14 70 97 118 185
108 213 116 247 73z m893 -41 c132 -73 163 -103 154 -145 -16 -80 -62 -79
-208 5 -161 91 -184 121 -136 182 29 38 63 30 190 -42z m-722 -130 c29 -37 23
-63 -47 -186 -65 -116 -101 -157 -135 -157 -35 0 -68 35 -68 72 0 33 105 227
147 272 32 35 75 34 103 -1z m463 1 c42 -45 147 -239 147 -272 0 -37 -33 -72
-68 -72 -34 0 -70 41 -135 157 -70 123 -76 149 -47 186 28 35 71 36 103 1z
m-238 -59 c24 -23 25 -28 25 -178 0 -136 -2 -158 -18 -178 -26 -31 -78 -31
-104 0 -16 20 -18 42 -18 178 0 150 1 155 25 178 13 14 34 25 45 25 12 0 32
-11 45 -25z"/>
</g>
</svg>
